<?xml version="1.0" encoding="utf-8"?>
<!-- Generator: Adobe Illustrator 16.0.0, SVG Export Plug-In . SVG Version: 6.00 Build 0)  -->
<!DOCTYPE svg PUBLIC "-//W3C//DTD SVG 1.1//EN" "http://www.w3.org/Graphics/SVG/1.1/DTD/svg11.dtd">
<svg version="1.1" id="Layer_1" xmlns="http://www.w3.org/2000/svg" xmlns:xlink="http://www.w3.org/1999/xlink" x="0px" y="0px"
	 width="235px" height="105px" viewBox="0 0 235 105" enable-background="new 0 0 235 105" xml:space="preserve">
<g>
	<path fill="#06514D" d="M14.754,17.069c0,0,0.743-1.098,0.961-1.625c0.217-0.523,0.129-1.268-0.481-1.574
		c-0.619-0.308-1.359-0.615-2.938,1.399c0,0-10.795,11.332-10.795,32.691c0,21.356,7.812,37.461,11.198,42.246
		c3.385,4.785,4.46,5.604,5.372,5.645c0.933,0.043,2.127-1.175,0.954-2.749c-1.179-1.578-4.277-7.035-6.966-13.396
		c0,0-6.245-14.591-6.245-31.862c0-17.275,5.912-25.947,6.772-27.429C13.44,18.94,14.754,17.069,14.754,17.069z"/>
	<path fill="#06514D" d="M38.609,3.495c-14.701,0-24.622,17.157-27.075,25.095c-2.453,7.934-2.47,11.369-2.47,15.486
		c0,4.113,1.534,11.026,4.332,14.867c2.801,3.839,3.947,4.389,4.66,5.05c0.72,0.658,1.924-1.21,0.499-3.074
		c-1.429-1.864-5.375-5.759-5.375-20.576c0-14.813,10.667-30.544,22.688-30.544c12.024,0,25.419,15.752,25.419,39.095
		c0,23.341-9.099,36.958-9.099,36.958s-3.196-4.628-4.632-6.691c-1.441-2.062-2.253-3.344-2.253-3.344s3.455-4.592,4.938-8.363
		c1.479-3.772,2.492-7.704,2.492-12.566c0-4.865-3.035-6.576-4.86-6.576c-1.834,0-4.905,1.867-7.122,5.369
		c-2.219,3.501-2.797,4.517-2.797,4.517s-1.364-7.824-1.714-12.918c-0.35-5.097-1.173-14.748-0.705-19.961
		c0.474-5.212,1.17-7.079,1.359-8.324c0.2-1.242,0.402-2.629-1-2.85c-1.397-0.214-2.014,0.877-2.507,3.036
		c-0.494,2.16-1.929,7.674-1.929,12.886s0,11.943,0.189,16.575c0.196,4.627,1.088,9.685,1.404,14.427
		c0.308,4.75,0.539,16.147,0.539,19.222c0,3.073-0.306,6.964-0.736,10.034c-0.422,3.074-1.087,4.479-1.206,5.134
		c-0.118,0.667,0.351,1.444,1.33,0.936c0.97-0.5,1.745-1.711,2.72-4.861c0.97-3.153,1.986-9.026,2.214-11.048
		c0.231-2.024,0.271-2.957,0.271-2.957s3.577,1.75,5.758,6.108c2.175,4.355,3.581,6.688,3.233,7.588
		c-0.356,0.891-1.87,3.266-4.634,4.63c-2.761,1.359-7.042,2.406-10.191,2.406c-3.152,0-6.084-0.41-6.084-0.41
		s-1.748-0.387-2.378-0.165c-0.634,0.214-0.921,1.621,0.34,2.469c1.26,0.85,4.508,1.431,7.832,1.431
		c3.324,0,12.232-1.182,19.04-8.028c6.808-6.846,15.169-19.569,15.169-43.959C66.267,25.201,53.314,3.495,38.609,3.495z
		 M43.189,73.948c-3.59,2.488-4.637,2.72-4.637,2.72l-0.11-13.375c0,0,2.021-4.57,4.398-6.479c2.376-1.911,5.44-2.023,5.44,4.34
		C48.28,67.521,46.771,71.459,43.189,73.948z"/>
</g>
<g>
	<path fill="#06514D" d="M85.303,50.776l-2.834,3.525v5.275c-0.026,0.412-0.342,0.619-0.951,0.619H80.7
		c-0.607,0-0.923-0.207-0.949-0.619V41.882c0.026-0.413,0.342-0.62,0.949-0.62h0.818c0.608,0,0.925,0.207,0.951,0.62v8.077
		l6.669-8.077c0.358-0.413,0.838-0.62,1.444-0.62h1.47c0.408,0,0.611,0.092,0.611,0.278c0,0.087-0.051,0.201-0.156,0.342
		l-5.344,6.605l6.645,11.089c0.06,0.096,0.09,0.194,0.09,0.292c0,0.218-0.225,0.327-0.675,0.327h-1.338
		c-0.598,0-1.038-0.207-1.314-0.619L85.303,50.776z"/>
	<path fill="#06514D" d="M107.866,47.959v11.617c-0.026,0.412-0.342,0.619-0.949,0.619h-0.819c-0.606,0-0.923-0.207-0.951-0.619
		V58.13c-0.735,1.201-1.95,1.89-3.641,2.065c-3.797,0-5.696-2.396-5.696-7.186c0.408-4.708,2.614-7.149,6.619-7.326
		C105.247,45.684,107.06,46.442,107.866,47.959z M98.373,52.987c0,3.006,0.989,4.509,2.965,4.509
		c1.957-0.007,3.23-1.235,3.809-3.683v-4.735c-0.518-0.606-1.455-0.91-2.808-0.91C99.947,48.257,98.623,49.864,98.373,52.987z"/>
	<path fill="#06514D" d="M114.771,59.576c-0.026,0.412-0.343,0.619-0.949,0.619h-0.821c-0.606,0-0.923-0.207-0.948-0.619V40.567
		c0.025-0.413,0.342-0.62,0.948-0.62h0.821c0.606,0,0.923,0.207,0.949,0.62v7.182c0.736-1.202,1.95-1.889,3.641-2.065
		c3.722,0,5.617,2.294,5.696,6.881h0.024v7.011c-0.024,0.412-0.342,0.619-0.949,0.619h-0.819c-0.606,0-0.923-0.207-0.949-0.619
		v-7.065c0-2.754-0.943-4.129-2.833-4.129c-1.959,0.008-3.23,1.236-3.811,3.682V59.576z"/>
	<path fill="#06514D" d="M133.056,60.156c-3.27,0-4.903-1.288-4.903-3.867v-9.974c0.024-0.413,0.342-0.617,0.949-0.617h0.82
		c0.605,0,0.922,0.205,0.948,0.617l0.012,9.919c0,1.08,0.697,1.62,2.096,1.62c1.438-0.239,2.578-1.25,3.419-3.04
		c0.381-1.147,0.57-2.416,0.57-3.802c0-1.438-0.201-3.005-0.608-4.698c0.024-0.413,0.34-0.617,0.95-0.617h0.817
		c0.604,0,0.921,0.205,0.95,0.617c0.373,1.755,0.558,3.382,0.558,4.882C139.428,56.81,137.233,59.798,133.056,60.156z"/>
	<path fill="#06514D" d="M145.554,53.934c0.37,2.561,1.604,3.843,3.705,3.843c1.421,0,2.45-0.54,3.083-1.62
		c0.06-0.114,0.163-0.172,0.311-0.172c0.095,0,0.203,0.021,0.324,0.069l1.547,0.719c0.141,0.089,0.208,0.196,0.208,0.317
		c0,0.079-0.021,0.156-0.064,0.238c-1.006,1.806-2.808,2.736-5.408,2.788c-4.232-0.088-6.357-2.525-6.371-7.315
		c0.274-4.666,2.443-7.042,6.498-7.131c2.864,0.054,4.447,1.299,4.749,3.738c-0.088,2.92-2.161,4.478-6.229,4.668
		C147.135,54.076,146.349,54.029,145.554,53.934z M151.818,49.512c-0.197-1.078-1.053-1.617-2.56-1.617
		c-2.089,0.175-3.338,1.394-3.747,3.656c0.867,0.229,1.713,0.343,2.537,0.343c0.58,0,1.156-0.079,1.729-0.237
		c1.36-0.376,2.04-1.065,2.04-2.064V49.512z"/>
	<path fill="#06514D" d="M169.493,41.262c6.111,0,9.197,3.157,9.259,9.473c-0.062,6.245-3.104,9.369-9.129,9.369h-4.603V41.619
		C165.287,41.382,166.779,41.262,169.493,41.262z M167.736,57.696c0.044,0.045,0.691,0.063,1.938,0.063
		c4.167,0,6.288-2.344,6.358-7.036c-0.07-4.693-2.191-7.039-6.358-7.039c-1.247,0-1.895,0.023-1.938,0.064V57.696z"/>
	<path fill="#06514D" d="M184.679,41.119v1.329c0,0.438-0.305,0.658-0.921,0.658h-0.897c-0.606,0-0.91-0.22-0.91-0.658v-1.329
		c0-0.448,0.304-0.673,0.91-0.673h0.897C184.374,40.446,184.679,40.671,184.679,41.119z M184.667,59.576
		c-0.024,0.412-0.343,0.619-0.948,0.619h-0.819c-0.606,0-0.922-0.207-0.949-0.619V46.315c0.027-0.413,0.343-0.617,0.949-0.617h0.819
		c0.605,0,0.924,0.205,0.948,0.617V59.576z"/>
	<path fill="#06514D" d="M197.972,58.353c-0.799,1.203-2.013,1.804-3.643,1.804c-3.466,0-5.2-2.221-5.2-6.658v-7.183
		c0.024-0.413,0.34-0.617,0.95-0.617h0.818c0.606,0,0.922,0.205,0.948,0.617v7.13c0,2.93,0.825,4.395,2.47,4.395
		c1.796-0.043,3.015-1.191,3.656-3.447v-8.078c0.024-0.413,0.342-0.617,0.95-0.617h0.817c0.607,0,0.924,0.205,0.951,0.617v12.591
		c-0.063,4.533-2.433,6.851-7.113,6.947c-0.364-0.009-0.548-0.192-0.548-0.553v-1.355c0.018-0.396,0.175-0.597,0.469-0.605
		c2.809-0.053,4.299-1.457,4.474-4.211V58.353z"/>
	<path fill="#06514D" d="M216.764,47.959v11.617c-0.027,0.412-0.344,0.619-0.95,0.619h-0.82c-0.606,0-0.922-0.207-0.948-0.619V58.13
		c-0.737,1.201-1.952,1.89-3.643,2.065c-3.797,0-5.696-2.396-5.696-7.186c0.407-4.708,2.614-7.149,6.622-7.326
		C214.145,45.684,215.955,46.442,216.764,47.959z M207.27,52.987c0,3.006,0.987,4.509,2.965,4.509
		c1.958-0.007,3.229-1.235,3.811-3.683v-4.735c-0.521-0.606-1.458-0.91-2.809-0.91C208.843,48.257,207.522,49.864,207.27,52.987z"/>
	<path fill="#06514D" d="M226.489,48.473c-1.863,0.097-2.804,1.21-2.81,3.342v7.761c-0.024,0.412-0.342,0.619-0.948,0.619h-0.82
		c-0.606,0-0.938-0.207-0.989-0.619V46.315c0.028-0.413,0.343-0.617,0.949-0.617h0.86c0.606,0,0.924,0.205,0.948,0.617v1.529
		c0.608-1.406,1.887-2.129,3.837-2.174c0.467,0,0.7,0.154,0.7,0.461c0,0.081-0.016,0.171-0.05,0.276l-0.571,1.409
		C227.403,48.202,227.033,48.42,226.489,48.473z"/>
	<path fill="#06514D" d="M232.834,59.576c-0.024,0.412-0.34,0.619-0.948,0.619h-0.818c-0.608,0-0.925-0.207-0.95-0.619V46.315
		c0.025-0.413,0.342-0.617,0.95-0.617h0.818c0.608,0,0.924,0.205,0.948,0.617V59.576z"/>
</g>
</svg>
