<?xml version="1.0" encoding="utf-8"?>
<!-- Generator: Adobe Illustrator 16.0.0, SVG Export Plug-In . SVG Version: 6.00 Build 0)  -->
<!DOCTYPE svg PUBLIC "-//W3C//DTD SVG 1.1//EN" "http://www.w3.org/Graphics/SVG/1.1/DTD/svg11.dtd">
<svg version="1.1" id="Layer_1" xmlns="http://www.w3.org/2000/svg" xmlns:xlink="http://www.w3.org/1999/xlink" x="0px" y="0px"
	 width="170px" height="30px" viewBox="0 0 170 30" enable-background="new 0 0 170 30" xml:space="preserve">
<g>
	<path fill="#06514D" d="M10.355,13.305l-2.991,3.674v5.498c-0.027,0.431-0.36,0.646-1,0.646H5.5c-0.639,0-0.973-0.215-1-0.646
		V4.035c0.027-0.431,0.361-0.646,1-0.646h0.864c0.64,0,0.973,0.216,1,0.646v8.418l7.034-8.418c0.377-0.431,0.883-0.646,1.522-0.646
		h1.55c0.429,0,0.645,0.097,0.645,0.29c0,0.09-0.054,0.21-0.164,0.357l-5.636,6.884l7.006,11.557
		c0.065,0.103,0.096,0.201,0.096,0.304c0,0.228-0.238,0.342-0.711,0.342h-1.413c-0.629,0-1.094-0.215-1.386-0.646L10.355,13.305z"/>
	<path fill="#06514D" d="M34.146,10.369v12.107c-0.027,0.431-0.361,0.646-1.001,0.646h-0.863c-0.64,0-0.973-0.215-1.003-0.646
		v-1.506c-0.774,1.253-2.055,1.968-3.838,2.151c-4.005,0-6.006-2.496-6.006-7.487c0.43-4.91,2.756-7.455,6.979-7.638
		C31.385,7.998,33.295,8.788,34.146,10.369z M24.136,15.608c0,3.135,1.044,4.702,3.127,4.702c2.064-0.009,3.406-1.288,4.016-3.838
		v-4.937c-0.544-0.632-1.533-0.946-2.96-0.946C25.795,10.679,24.401,12.354,24.136,15.608z"/>
	<path fill="#06514D" d="M41.428,22.477c-0.027,0.431-0.361,0.646-1,0.646h-0.864c-0.639,0-0.973-0.215-1-0.646V2.664
		c0.027-0.429,0.361-0.645,1-0.645h0.864c0.639,0,0.974,0.216,1,0.645v7.485c0.777-1.252,2.058-1.968,3.838-2.151
		c3.925,0,5.923,2.391,6.008,7.172h0.028v7.307c-0.028,0.431-0.364,0.646-1.003,0.646h-0.863c-0.64,0-0.974-0.215-1.001-0.646
		v-7.363c0-2.869-0.995-4.304-2.987-4.304c-2.067,0.01-3.407,1.289-4.019,3.839V22.477z"/>
	<path fill="#06514D" d="M60.708,23.08c-3.447,0-5.169-1.341-5.169-4.031V8.655c0.027-0.427,0.361-0.644,1-0.644h0.864
		c0.64,0,0.973,0.217,1,0.644l0.014,10.338c0,1.128,0.735,1.689,2.208,1.689c1.517-0.248,2.72-1.304,3.605-3.168
		c0.402-1.196,0.604-2.519,0.604-3.964c0-1.497-0.213-3.131-0.643-4.896c0.025-0.427,0.359-0.644,1-0.644h0.861
		c0.64,0,0.974,0.217,1.003,0.644c0.394,1.829,0.587,3.525,0.587,5.089C67.428,19.593,65.115,22.707,60.708,23.08z"/>
	<path fill="#06514D" d="M73.887,16.596c0.394,2.669,1.695,4.004,3.909,4.004c1.498,0,2.583-0.563,3.25-1.687
		c0.062-0.117,0.172-0.179,0.328-0.179c0.098,0,0.216,0.021,0.341,0.07l1.632,0.75c0.147,0.093,0.219,0.203,0.219,0.331
		c0,0.083-0.021,0.163-0.068,0.247c-1.06,1.883-2.96,2.853-5.702,2.907c-4.461-0.091-6.703-2.634-6.72-7.624
		c0.29-4.864,2.579-7.343,6.856-7.433c3.015,0.055,4.685,1.353,5.005,3.895c-0.094,3.043-2.28,4.666-6.569,4.866
		C75.555,16.745,74.729,16.696,73.887,16.596z M80.494,11.988c-0.208-1.125-1.11-1.686-2.698-1.686
		c-2.204,0.181-3.521,1.452-3.95,3.81c0.913,0.238,1.804,0.357,2.674,0.357c0.612,0,1.222-0.081,1.826-0.248
		c1.433-0.391,2.148-1.11,2.148-2.151V11.988z"/>
	<path fill="#06514D" d="M99.135,3.389c6.443,0,9.699,3.292,9.762,9.874c-0.063,6.507-3.272,9.763-9.626,9.763h-4.854V3.76
		C94.698,3.515,96.273,3.389,99.135,3.389z M97.28,20.517c0.048,0.047,0.729,0.068,2.046,0.068c4.396,0,6.632-2.443,6.702-7.335
		c-0.07-4.892-2.307-7.336-6.702-7.336c-1.317,0-1.998,0.023-2.046,0.066V20.517z"/>
	<path fill="#06514D" d="M115.148,3.239v1.385c0,0.457-0.323,0.687-0.974,0.687h-0.945c-0.64,0-0.961-0.23-0.961-0.687V3.239
		c0-0.465,0.321-0.701,0.961-0.701h0.945C114.825,2.538,115.148,2.773,115.148,3.239z M115.135,22.477
		c-0.028,0.431-0.361,0.646-1,0.646h-0.865c-0.64,0-0.973-0.215-1.001-0.646V8.655c0.028-0.427,0.361-0.644,1.001-0.644h0.865
		c0.639,0,0.972,0.217,1,0.644V22.477z"/>
	<path fill="#06514D" d="M129.164,21.203c-0.844,1.252-2.122,1.877-3.839,1.877c-3.657,0-5.486-2.312-5.486-6.937V8.655
		c0.027-0.427,0.361-0.644,1.001-0.644h0.863c0.639,0,0.973,0.217,1,0.644v7.432c0,3.053,0.87,4.581,2.605,4.581
		c1.895-0.045,3.178-1.243,3.855-3.594V8.655c0.026-0.427,0.362-0.644,1.003-0.644h0.86c0.644,0,0.977,0.217,1.004,0.644v13.124
		c-0.066,4.726-2.564,7.139-7.501,7.24c-0.385-0.008-0.577-0.201-0.577-0.576v-1.411c0.02-0.413,0.183-0.623,0.495-0.63
		c2.96-0.057,4.532-1.519,4.716-4.389V21.203z"/>
	<path fill="#06514D" d="M148.979,10.369v12.107c-0.028,0.431-0.361,0.646-1.005,0.646h-0.859c-0.64,0-0.973-0.215-1.002-0.646
		v-1.506c-0.777,1.253-2.057,1.968-3.839,2.151c-4.005,0-6.007-2.496-6.007-7.487c0.43-4.91,2.756-7.455,6.98-7.638
		C146.219,7.998,148.13,8.788,148.979,10.369z M138.97,15.608c0,3.135,1.04,4.702,3.125,4.702c2.064-0.009,3.404-1.288,4.019-3.838
		v-4.937c-0.548-0.632-1.535-0.946-2.962-0.946C140.628,10.679,139.233,12.354,138.97,15.608z"/>
	<path fill="#06514D" d="M159.236,10.903c-1.965,0.101-2.955,1.263-2.961,3.486v8.087c-0.027,0.431-0.36,0.646-1.002,0.646h-0.864
		c-0.641,0-0.987-0.215-1.043-0.646V8.655c0.027-0.427,0.36-0.644,1.001-0.644h0.906c0.642,0,0.975,0.217,1.002,0.644v1.592
		c0.64-1.464,1.988-2.218,4.046-2.263c0.492,0,0.737,0.16,0.737,0.481c0,0.082-0.016,0.178-0.055,0.287l-0.601,1.468
		C160.2,10.622,159.811,10.85,159.236,10.903z"/>
	<path fill="#06514D" d="M165.928,22.477c-0.028,0.431-0.361,0.646-1,0.646h-0.863c-0.642,0-0.975-0.215-1.001-0.646V8.655
		c0.026-0.427,0.359-0.644,1.001-0.644h0.863c0.639,0,0.972,0.217,1,0.644V22.477z"/>
</g>
</svg>
