<?xml version="1.0" encoding="utf-8"?>
<!-- Generator: Adobe Illustrator 16.0.0, SVG Export Plug-In . SVG Version: 6.00 Build 0)  -->
<!DOCTYPE svg PUBLIC "-//W3C//DTD SVG 1.1//EN" "http://www.w3.org/Graphics/SVG/1.1/DTD/svg11.dtd">
<svg version="1.1" id="Layer_1" xmlns="http://www.w3.org/2000/svg" xmlns:xlink="http://www.w3.org/1999/xlink" x="0px" y="0px"
	 width="250px" height="65px" viewBox="0 0 250 65" enable-background="new 0 0 250 65" xml:space="preserve">
<rect fill="#00524D" width="250" height="65"/>
<g>
	<g>
		<path fill="#D98933" d="M193.779,34.081l0.714-1.06c-1.354-0.317-2.231-1.566-2.231-3.327v-0.087c0-2.04,1.27-3.425,3.051-3.425
			c1,0,1.646,0.365,2.162,0.895l-0.836,1.077c-0.404-0.413-0.826-0.673-1.375-0.673c-0.902,0-1.568,0.836-1.568,2.145v0.028
			c0,1.337,0.691,2.153,1.586,2.153c0.542,0,0.935-0.248,1.389-0.701l0.835,0.991c-0.557,0.576-1.144,0.942-2.028,1.001
			l-0.551,1.439L193.779,34.081z"/>
		<path fill="#D98933" d="M200.366,26.242h1.327l2.416,6.771h-1.443l-0.499-1.462h-2.319l-0.49,1.462h-1.404L200.366,26.242z
			 M201.742,30.32l-0.73-2.193l-0.74,2.193H201.742z"/>
		<path fill="#D98933" d="M204.375,29.695v-0.087c0-1.992,1.316-3.425,3.146-3.425c0.941,0,1.586,0.271,2.201,0.79l-0.826,1.087
			c-0.356-0.327-0.75-0.577-1.396-0.577c-0.962,0-1.69,0.875-1.69,2.115v0.078c0,1.385,0.758,2.163,1.75,2.163
			c0.394,0,0.748-0.096,1-0.278v-1.194h-1.224v-1.211h2.552v3.116c-0.617,0.462-1.397,0.839-2.396,0.839
			C205.682,33.109,204.375,31.8,204.375,29.695z M205.77,24.454h0.903c0.097,0.288,0.298,0.452,0.714,0.452
			c0.403,0,0.612-0.164,0.711-0.452H209c-0.064,0.863-0.709,1.325-1.613,1.325C206.48,25.779,205.837,25.317,205.77,24.454z"/>
		<path fill="#D98933" d="M211.084,26.28h2.534c0.774,0,1.403,0.222,1.823,0.645c0.365,0.365,0.57,0.895,0.57,1.558v0.038
			c0,1.02-0.511,1.664-1.253,1.992l1.435,2.5h-1.598l-1.24-2.213h-0.875v2.213h-1.396V26.28z M213.51,29.569
			c0.715,0,1.098-0.404,1.098-1.009v-0.011c0-0.672-0.414-1.009-1.123-1.009h-1.002v2.029H213.51z"/>
		<path fill="#D98933" d="M217.172,26.28h1.396v6.733h-1.396V26.28z"/>
	</g>
	<g>
		<path fill="#D98933" d="M193.104,35.824h1.463l1.502,2.732l1.48-2.732h1.475v6.732h-1.366v-4.301l-1.589,2.779h-0.026l-1.58-2.758
			v4.277h-1.356v-6.73H193.104z"/>
		<path fill="#D98933" d="M200.375,35.824h4.34v1.26h-2.953v1.452h2.598v1.26h-2.598v1.5h2.991v1.261h-4.378V35.824z"/>
		<path fill="#D98933" d="M205.854,35.824h2.53c0.778,0,1.404,0.221,1.828,0.645c0.365,0.366,0.565,0.896,0.565,1.559v0.037
			c0,1.021-0.51,1.668-1.248,1.994l1.431,2.498h-1.597l-1.239-2.212h-0.875v2.212h-1.396V35.824L205.854,35.824z M208.277,39.113
			c0.711,0,1.099-0.403,1.099-1.01v-0.01c0-0.671-0.414-1.011-1.126-1.011h-1v2.028h1.027V39.113z"/>
		<path fill="#D98933" d="M211.893,35.824h1.396v2.904l2.203-2.904h1.645l-2.26,2.857l2.354,3.875h-1.633l-1.686-2.771l-0.624,0.79
			v1.979h-1.396V35.824L211.893,35.824z"/>
		<path fill="#D98933" d="M217.986,35.824h4.341v1.26h-2.953v1.452h2.599v1.26h-2.599v1.5h2.991v1.261h-4.379V35.824z"/>
		<path fill="#D98933" d="M223.284,41.488l3.067-4.424h-2.973v-1.24h4.695v1.066l-3.068,4.426h3.068v1.24h-4.791L223.284,41.488
			L223.284,41.488z"/>
		<path fill="#D98933" d="M229.283,35.824h1.395v6.732h-1.395V35.824z M229.322,34.182h1.324v1.162h-1.324V34.182z"/>
	</g>
	<path fill="#FCFFFF" d="M245.796,26.994c-0.006-2.081-1.22-4.023-3.198-4.625c-1.041-0.314-1.271-0.882-1.475-1.777
		c-3.109-13.837-17.596-22.27-31.107-17.961c-7.246,2.309-12.275,6.777-15.121,13.208l2.289,2.94
		C200.55,9.6,209.675,4.31,217.59,4.931c1.051,0.08,2.107,0.145,3.146,0.315c8.65,1.412,15.673,8.276,17.334,16.912
		c0.072,0.385-0.021,0.625-0.34,0.876c-1.215,0.944-1.926,2.191-1.935,3.743c-0.024,4.973-0.021,9.944-0.015,14.917
		c0.001,1.313,0.494,2.438,1.392,3.4c0.103,0.108,0.167,0.379,0.103,0.502c-1.143,2.278-2.565,4.275-4.959,5.473
		c-3.592,1.798-7.342,3.182-11.135,4.466c-0.172,0.055-0.455-0.034-0.617-0.149c-0.885-0.63-1.86-0.966-2.934-0.767
		c-1.607,0.293-3.211,0.639-4.797,1.032c-2.057,0.509-3.29,2.636-2.823,4.75c0.458,2.082,2.525,3.443,4.623,3.023
		c1.464-0.295,2.925-0.598,4.378-0.927c1.754-0.396,3.065-1.961,3.074-3.707c0.001-0.47,0.191-0.601,0.577-0.747
		c2.84-1.076,5.68-2.146,8.498-3.281c3.563-1.432,6.569-3.537,8.228-7.164c0.319-0.699,0.676-1.226,1.561-0.955
		c0.014,0.004,0.033,0,0.051,0c2.861-0.23,4.799-2.338,4.799-5.223c0-2.367,0-4.736,0-7.104
		C245.799,31.875,245.805,29.434,245.796,26.994z"/>
	<g>
		<path fill="#FCFFFF" d="M20.652,41.336v-1.622h-9.736c-1.983,0-3.064-1.227-3.064-2.704c0-0.83,0.289-1.73,1.154-3.065
			l8.113-12.332c1.262-1.875,2.631-2.849,5.264-2.849c3.101,0,4.832,2.163,4.832,4.939v9.916h1.189c2.091,0,3.39,0.865,3.39,3.066
			c0,2.199-1.37,3.028-3.39,3.028h-1.189v1.55c0,2.2-1.226,3.606-3.282,3.606S20.652,43.5,20.652,41.336z M20.472,33.619
			l0.181-7.247l-0.036-0.325l-4.435,7.572H20.472z"/>
		<path fill="#FCFFFF" d="M45.064,41.336v-1.622h-9.736c-1.983,0-3.064-1.227-3.064-2.704c0-0.83,0.288-1.73,1.154-3.065
			l8.112-12.332c1.263-1.875,2.632-2.849,5.265-2.849c3.101,0,4.832,2.163,4.832,4.939v9.916h1.19c2.091,0,3.39,0.865,3.39,3.066
			c0,2.199-1.371,3.028-3.39,3.028h-1.19v1.55c0,2.2-1.226,3.606-3.281,3.606C46.29,44.87,45.064,43.5,45.064,41.336z
			 M44.883,33.619l0.181-7.247l-0.037-0.325l-4.435,7.572H44.883z"/>
		<path fill="#FCFFFF" d="M69.476,41.336v-1.622H59.74c-1.983,0-3.065-1.227-3.065-2.704c0-0.83,0.289-1.73,1.154-3.065
			l8.113-12.332c1.262-1.875,2.632-2.849,5.265-2.849c3.101,0,4.832,2.163,4.832,4.939v9.916h1.189c2.092,0,3.39,0.865,3.39,3.066
			c0,2.199-1.371,3.028-3.39,3.028h-1.189v1.55c0,2.2-1.226,3.606-3.281,3.606S69.476,43.5,69.476,41.336z M69.295,33.619
			l0.18-7.247l-0.036-0.325l-4.435,7.572H69.295z"/>
		<path fill="#FCFFFF" d="M92.807,41.589c0-1.082,0.756-2.271,2.199-3.749l6.49-6.636c1.298-1.298,2.344-2.92,2.344-4.399
			c0-1.37-0.793-1.911-1.947-1.911c-1.154,0-2.127,0.829-2.452,2.488c-0.253,1.406-1.299,2.452-2.957,2.452
			c-1.875,0-3.101-1.442-3.101-3.209c0-4.363,3.101-8.329,9.014-8.329c5.374,0,8.618,3.281,8.618,7.969
			c0,4.11-2.596,6.526-5.192,9.049l-3.065,3.03h5.769c1.875,0,2.993,1.334,2.993,3.137c0,1.875-1.37,3.174-2.993,3.174H96.448
			C94.284,44.654,92.807,43.571,92.807,41.589z"/>
		<path fill="#FCFFFF" d="M112.53,38.056c0-1.731,1.479-3.138,3.173-3.138c1.478,0,2.344,0.793,3.353,2.163
			c0.758,1.011,1.586,1.659,2.994,1.659c1.549,0,2.487-1.01,2.487-2.379c0-1.588-1.37-2.237-3.101-2.345
			c-1.875-0.108-3.029-1.046-3.029-2.848c0-1.984,1.551-2.596,3.643-3.102c0.756-0.18,1.91-0.613,1.91-1.731
			c0-1.045-0.901-1.55-1.875-1.55c-1.371,0-2.164,0.685-3.209,1.406c-0.829,0.577-1.442,1.082-2.705,1.082
			c-1.623,0-2.74-1.406-2.74-3.137c0-3.318,4.723-5.841,8.545-5.841c5.481,0,8.474,2.885,8.474,7.067
			c0,2.127-1.189,4.219-3.173,5.337c2.703,1.154,4.291,3.388,4.291,6.527c0,4.686-4.038,8.112-9.484,8.112
			C116.749,45.339,112.53,41.877,112.53,38.056z"/>
		<path fill="#FCFFFF" d="M156.846,41.336v-1.622h-9.735c-1.983,0-3.066-1.227-3.066-2.704c0-0.83,0.288-1.73,1.154-3.065
			l8.113-12.332c1.263-1.875,2.633-2.849,5.266-2.849c3.101,0,4.831,2.163,4.831,4.939v9.916h1.188c2.092,0,3.389,0.865,3.389,3.066
			c0,2.199-1.37,3.028-3.389,3.028h-1.188v1.55c0,2.2-1.227,3.606-3.282,3.606S156.846,43.5,156.846,41.336z M156.664,33.619
			l0.182-7.247l-0.036-0.325l-4.437,7.572H156.664z"/>
		<path fill="#FCFFFF" d="M168.853,40.543c0-2.092,1.154-3.642,2.958-3.642c2.019,0,3.425,1.839,5.408,1.839
			c1.694,0,3.028-1.082,3.028-3.461c0-1.551-0.721-2.886-2.561-2.886c-1.838,0-2.415,1.335-4.471,1.335
			c-1.694,0-2.523-0.83-2.523-2.489c0-1.19,0.144-2.632,0.216-3.209l0.685-6.238c0.218-1.839,1.119-2.812,3.461-2.812h9.341
			c1.694,0,3.063,1.298,3.063,3.173c0,1.839-1.369,3.137-3.063,3.137h-7.067l-0.218,2.308c0.829-0.216,1.804-0.397,2.669-0.397
			c5.229,0,7.789,3.498,7.789,8.547c0,5.372-3.642,9.591-10.097,9.591C173.685,45.339,168.853,43.644,168.853,40.543z"/>
	</g>
</g>
</svg>
